<svg width="25" height="26" viewBox="0 0 25 26" fill="none" xmlns="http://www.w3.org/2000/svg">
<path d="M12.0903 25.0069C8.77508 24.8964 5.63955 23.4735 3.37349 21.0512C1.10742 18.6288 -0.103557 15.4055 0.00695029 12.0903C0.117457 8.77508 1.5404 5.63955 3.96274 3.37349C6.38509 1.10742 9.60841 -0.103557 12.9236 0.0069503C16.1415 0.277016 19.1366 1.75961 21.3027 4.15463C23.4687 6.54965 24.6439 9.67818 24.5903 12.9069V15.6403C24.6004 16.6617 24.2521 17.6543 23.606 18.4455C22.96 19.2367 22.057 19.7763 21.0541 19.9706C20.0513 20.1648 19.0121 20.0013 18.1173 19.5086C17.2226 19.0158 16.5289 18.225 16.157 17.2736C15.244 18.0616 14.1231 18.5694 12.9287 18.736C11.7343 18.9027 10.5171 18.7212 9.42334 18.2134C8.32953 17.7055 7.40549 16.8928 6.76211 15.8728C6.11873 14.8528 5.78333 13.6688 5.79616 12.4629C5.80899 11.257 6.1695 10.0804 6.83444 9.07428C7.49937 8.06818 8.44049 7.27532 9.54485 6.79083C10.6492 6.30633 11.8699 6.15078 13.0605 6.34284C14.2511 6.53491 15.361 7.06642 16.257 7.87362C16.4778 7.64959 16.7759 7.51842 17.0903 7.50695C17.4174 7.50695 17.7311 7.63689 17.9624 7.86819C18.1937 8.09948 18.3236 8.41318 18.3236 8.74028V15.6069C18.3236 16.102 18.5203 16.5768 18.8704 16.9269C19.2204 17.277 19.6952 17.4736 20.1903 17.4736C20.6854 17.4736 21.1601 17.277 21.5102 16.9269C21.8603 16.5768 22.0569 16.102 22.0569 15.6069V12.8736C22.1013 10.2909 21.1674 7.78697 19.4425 5.86422C17.7175 3.94146 15.3293 2.74216 12.757 2.50695C11.3887 2.41553 10.0164 2.60648 8.72508 3.06793C7.4338 3.52938 6.25123 4.25147 5.25085 5.18933C4.25047 6.12719 3.45366 7.26077 2.90995 8.51962C2.36623 9.77847 2.08723 11.1357 2.09028 12.5069C2.09028 15.1591 3.14385 17.7027 5.01922 19.578C6.89458 21.4534 9.43812 22.507 12.0903 22.507C13.2262 22.5168 14.3548 22.3249 15.4236 21.9403C15.733 21.8254 16.0754 21.8381 16.3755 21.9756C16.6756 22.1131 16.9087 22.3642 17.0236 22.6736C17.1385 22.983 17.1258 23.3254 16.9883 23.6255C16.8508 23.9256 16.5997 24.1587 16.2903 24.2736C14.9433 24.7594 13.5222 25.0075 12.0903 25.0069ZM12.0903 8.77362C11.3519 8.77362 10.6301 8.99257 10.0162 9.4028C9.40221 9.81302 8.9237 10.3961 8.64113 11.0783C8.35857 11.7604 8.28463 12.5111 8.42869 13.2353C8.57274 13.9595 8.9283 14.6247 9.45042 15.1468C9.97253 15.6689 10.6378 16.0245 11.3619 16.1685C12.0861 16.3126 12.8368 16.2387 13.519 15.9561C14.2011 15.6735 14.7842 15.195 15.1944 14.5811C15.6047 13.9671 15.8236 13.2453 15.8236 12.5069C15.8236 11.5168 15.4303 10.5672 14.7301 9.86708C14.03 9.16695 13.0804 8.77362 12.0903 8.77362Z" fill="#14141F"/>
</svg>
