<svg width="28" height="27" viewBox="0 0 28 27" fill="none" xmlns="http://www.w3.org/2000/svg">
<path d="M20.7423 13.7333C20.4152 13.7333 20.1015 13.6034 19.8702 13.3721C19.6389 13.1408 19.509 12.8271 19.509 12.5C19.509 11.1739 18.9822 9.90215 18.0445 8.96447C17.1068 8.02678 15.835 7.5 14.509 7.5C14.1774 7.5 13.8595 7.3683 13.6251 7.13388C13.3907 6.89946 13.259 6.58152 13.259 6.25C13.259 5.91848 13.3907 5.60054 13.6251 5.36612C13.8595 5.1317 14.1774 5 14.509 5C16.4981 5 18.4057 5.79018 19.8123 7.1967C21.2188 8.60322 22.009 10.5109 22.009 12.5C22.009 12.8271 21.879 13.1408 21.6477 13.3721C21.4164 13.6034 21.0694 13.7333 20.7423 13.7333ZM26.909 13.8667C26.9723 13.4138 27.0057 12.9573 27.009 12.5C27.009 9.18479 25.692 6.00537 23.3478 3.66116C21.0036 1.31696 17.8242 0 14.509 0C14.0406 0.00176909 13.5728 0.0351784 13.109 0.0999999C12.9448 0.119698 12.7862 0.171536 12.642 0.252553C12.4979 0.33357 12.3712 0.44218 12.269 0.572182C12.1669 0.702184 12.0913 0.851032 12.0467 1.01023C12.0021 1.16942 11.9893 1.33585 12.009 1.5C12.0287 1.66415 12.0805 1.82282 12.1615 1.96694C12.2425 2.11105 12.3511 2.2378 12.4812 2.33995C12.6112 2.44209 12.76 2.51763 12.9192 2.56225C13.0784 2.60687 13.2448 2.6197 13.409 2.6C13.7736 2.54757 14.1408 2.51419 14.509 2.5C17.1611 2.5 19.7047 3.55357 21.58 5.42893C23.4554 7.3043 24.509 9.84783 24.509 12.5C24.5058 12.8676 24.4836 13.2347 24.4423 13.6C24.419 13.7647 24.4293 13.9324 24.4725 14.093C24.5157 14.2536 24.5909 14.4038 24.6937 14.5346C24.7965 14.6654 24.9246 14.774 25.0704 14.854C25.2163 14.934 25.3768 14.9837 25.5423 15H25.6756C25.9809 15.0018 26.276 14.8903 26.5038 14.6871C26.7316 14.4839 26.876 14.1701 26.909 13.8667Z" fill="#14141F"/>
<path d="M20.1461 20.7233C20.0166 20.2208 19.7837 19.7507 19.4623 19.3432C19.1409 18.9357 18.738 18.5997 18.2795 18.3567C17.8795 18.1567 17.4461 17.9233 17.0461 17.6567C16.2412 17.1584 15.2771 16.9845 14.3488 17.1701C13.4206 17.3558 12.5975 17.8871 12.0461 18.6567L10.4795 20.9233C9.49617 20.2088 8.57104 19.4174 7.71281 18.5567C6.85205 17.6984 6.06069 16.7733 5.34614 15.79L7.61281 14.2233C8.38235 13.672 8.91372 12.8489 9.09938 11.9207C9.28503 10.9924 9.11111 10.0282 8.61281 9.22334C8.37948 8.85668 8.14614 8.42334 7.91281 7.99001C7.66914 7.52858 7.33144 7.12335 6.92151 6.80047C6.51158 6.4776 6.03851 6.24424 5.53283 6.11547C5.02715 5.98669 4.50009 5.96536 3.98565 6.05283C3.47122 6.14031 2.98084 6.33466 2.54614 6.62334L1.31281 7.39001C0.816583 7.68718 0.428902 8.13585 0.206865 8.66993C-0.0151712 9.20402 -0.0598266 9.7953 0.0794762 10.3567C0.566452 12.4216 1.41267 14.3848 2.57948 16.1567C3.55267 17.6689 4.6932 19.0666 5.97948 20.3233C7.23622 21.6096 8.63393 22.7501 10.1461 23.7233C11.918 24.8902 13.8812 25.7364 15.9461 26.2233C16.1541 26.269 16.3665 26.2914 16.5795 26.29C17.0561 26.2775 17.5213 26.142 17.9302 25.8967C18.339 25.6514 18.6775 25.3046 18.9128 24.89L19.6795 23.69C19.9708 23.2664 20.1715 22.7873 20.269 22.2825C20.3665 21.7777 20.3587 21.2583 20.2461 20.7567L20.1461 20.7233Z" fill="#14141F"/>
</svg>
