<svg width="25" height="22" viewBox="0 0 25 22" fill="none" xmlns="http://www.w3.org/2000/svg">
<path d="M19.2561 14.4068C19.2561 15.4896 18.6911 17.2787 17.3258 17.2787C15.9605 17.2787 15.3955 15.4896 15.3955 14.4068C15.3955 13.3239 15.9605 11.5348 17.3258 11.5348C18.6911 11.5348 19.2561 13.3239 19.2561 14.4068ZM7.6742 11.5348C6.30885 11.5348 5.74388 13.3239 5.74388 14.4068C5.74388 15.4896 6.30885 17.2787 7.6742 17.2787C9.03955 17.2787 9.60452 15.4896 9.60452 14.4068C9.60452 13.3239 9.03955 11.5348 7.6742 11.5348ZM25 11.7702C25 13.4181 24.8117 15.2072 24.1055 16.7608C22.1281 20.7627 16.6667 21.1864 12.7589 21.1864C8.80414 21.1864 3.01318 20.8569 0.94162 16.7608C0.188324 15.2542 0 13.4652 0 11.7702C0 9.55744 0.612053 7.48588 2.02448 5.83804C1.75074 5.01806 1.60775 4.16011 1.60075 3.29567C1.60075 2.16573 1.83616 1.03578 2.35405 0C4.7081 0 6.26177 1.03578 8.05085 2.44821C9.579 2.09433 11.1433 1.92052 12.7119 1.93032C14.1243 1.93032 15.5367 2.07156 16.9021 2.40113C18.6911 0.988701 20.1977 0 22.5518 0C23.0697 1.03578 23.3051 2.16573 23.3051 3.29567C23.3051 4.14313 23.1638 4.99058 22.8814 5.83804C24.3879 7.48588 25 9.60452 25 11.7702ZM21.6102 14.4068C21.6102 12.0998 20.1977 10.0753 17.7495 10.0753C16.7608 10.0753 15.8192 10.2637 14.8305 10.4049C14.0301 10.5461 13.2768 10.5932 12.4765 10.5932C11.6761 10.5932 10.8757 10.5461 10.1224 10.4049C9.13371 10.2637 8.19209 10.0753 7.20339 10.0753C4.75518 10.0753 3.34275 12.0998 3.34275 14.4068C3.34275 19.0207 7.53296 19.7269 11.2053 19.7269H13.7476C17.42 19.7269 21.6102 19.0207 21.6102 14.4068Z" fill="white"/>
</svg>
