<svg width="22" height="22" viewBox="0 0 22 22" fill="none" xmlns="http://www.w3.org/2000/svg">
<path fill-rule="evenodd" clip-rule="evenodd" d="M3.15 0C2.31457 0 1.51335 0.331874 0.922614 0.922614C0.331874 1.51335 0 2.31457 0 3.15V18.8C0 19.6354 0.331874 20.4366 0.922614 21.0274C1.51335 21.6181 2.31457 21.95 3.15 21.95H18.8C19.6354 21.95 20.4366 21.6181 21.0274 21.0274C21.6181 20.4366 21.95 19.6354 21.95 18.8V3.15C21.95 2.31457 21.6181 1.51335 21.0274 0.922614C20.4366 0.331874 19.6354 0 18.8 0H3.15ZM4.85 6.7C5.34728 6.7 5.82419 6.50246 6.17582 6.15083C6.52746 5.79919 6.725 5.32228 6.725 4.825C6.725 4.32772 6.52746 3.85081 6.17582 3.49917C5.82419 3.14754 5.34728 2.95 4.85 2.95C4.35272 2.95 3.87581 3.14754 3.52417 3.49917C3.17254 3.85081 2.975 4.32772 2.975 4.825C2.975 5.32228 3.17254 5.79919 3.52417 6.15083C3.87581 6.50246 4.35272 6.7 4.85 6.7ZM6.4 18.45V8.2H3.25V18.5L6.4 18.45ZM8.5 8.2H11.65V9.6C12.1 8.9 13.1 7.9 15 7.9C17.25 7.9 18.45 9.4 18.45 12.2C18.45 12.35 18.45 12.95 18.45 12.95V18.45H15.3V12.95C15.3 12.2 15.15 10.7 13.45 10.7C11.75 10.7 11.6 12.55 11.6 13.8V18.45H8.45V8.2H8.5Z" fill="white"/>
</svg>
