<svg width="20" height="25" viewBox="0 0 20 25" fill="none" xmlns="http://www.w3.org/2000/svg">
<path d="M10 0C4.5 0 0 4.5 0 10C0 16.7667 8.76667 24.3667 9.13333 24.7667C9.36667 24.9 9.76667 25 10 25C10.2333 25 10.6333 24.8667 10.8667 24.7667C11.2333 24.4 20 16.7667 20 10C20 4.5 15.5 0 10 0ZM10 22.1333C7.36667 19.6333 2.5 14.2667 2.5 10C2.5 5.86667 5.86667 2.5 10 2.5C14.1333 2.5 17.5 5.86667 17.5 10C17.5 14.1333 12.6333 19.6333 10 22.1333ZM10 5C7.23333 5 5 7.26667 5 10C5 12.7333 7.26667 15 10 15C12.7333 15 15 12.7333 15 10C15 7.26667 12.7333 5 10 5ZM10 12.5C8.63333 12.5 7.5 11.3667 7.5 10C7.5 8.63333 8.63333 7.5 10 7.5C11.3667 7.5 12.5 8.63333 12.5 10C12.5 11.3667 11.3667 12.5 10 12.5Z" fill="#14141F"/>
</svg>
