<svg width="40" height="65" viewBox="0 0 40 65" fill="none" xmlns="http://www.w3.org/2000/svg">
<path d="M0.430766 42.69C2.90964 33.3922 14.6836 28.0497 19.1997 18.2975C21.3847 13.5777 20.3634 4.86291 16.6333 1.37293C16.4351 1.18667 15.6135 -0.487403 16.4499 0.139983C24.7616 6.52607 31.5191 14.9572 28.3931 23.0945C24.055 34.3882 12.8815 40.0285 12.9632 51.528C12.9981 56.3117 16.3542 60.1493 20.6217 64.1614L20.7961 65C9.71541 61.6791 -2.45705 53.5208 0.430766 42.69ZM28.3968 55.3172C34.8337 49.2374 38.7635 45.544 37.1018 38.5025C39.1227 41.7594 40.9997 46.2766 39.3966 49.797C37.9627 52.9433 36.5355 55.1356 31.3135 58.2032C28.546 59.8282 26.4656 61.588 24.7274 64.5332C24.6369 61.4508 25.2032 58.3341 28.3968 55.3172ZM21.2511 44.8504C23.7129 40.0947 27.3065 36.6913 30.7896 31.8125C33.2618 28.3497 35.5261 22.5988 33.1593 17.904L33.3122 17.6795C36.9392 21.9348 37.0907 28.8727 35.9529 34.0126C34.165 42.0938 27.7926 45.3593 24.0899 51.2684C22.6397 53.5831 21.8151 56.4177 22.2263 59.3878C18.1154 55.8643 19.0476 49.108 21.2511 44.8504Z" fill="url(#paint0_linear_79_9)"/>
<defs>
<linearGradient id="paint0_linear_79_9" x1="0" y1="65" x2="38.028" y2="53.0261" gradientUnits="userSpaceOnUse">
<stop stop-color="#1384C3"/>
<stop offset="1" stop-color="#7311A1" stop-opacity="0.81"/>
</linearGradient>
</defs>
</svg>
