<svg width="21" height="23" viewBox="0 0 21 23" fill="black" xmlns="http://www.w3.org/2000/svg">
<path d="M7.6924 0.46179C10.0466 0.113257 12.4506 0.515976 14.5623 1.61264C16.4109 2.57811 17.9536 4.03966 19.0173 5.83322C20.0811 7.62679 20.6237 9.68138 20.5845 11.7664C20.5452 13.8514 19.9255 15.8843 18.7949 17.6369C17.6643 19.3895 16.0676 20.7925 14.1841 21.6883C11.989 22.7412 9.5092 23.045 7.12508 22.5532C4.79438 22.0728 2.67471 20.8697 1.06769 19.1149C0.961563 18.9994 0.88895 18.8571 0.857661 18.7034C0.826373 18.5496 0.837594 18.3903 0.890117 18.2424C0.94264 18.0946 1.03448 17.9638 1.15575 17.8642C1.27703 17.7647 1.42316 17.7 1.57842 17.6773C3.27836 17.4192 4.87651 16.7048 6.20257 15.6103C7.52864 14.5158 8.53293 13.0821 9.10845 11.462C9.68396 9.84197 9.80913 8.09621 9.47061 6.41078C9.13209 4.72535 8.34257 3.1634 7.18618 1.89137C7.08005 1.77582 7.00744 1.63353 6.97615 1.47979C6.94486 1.32605 6.95608 1.16669 7.0086 1.01883C7.06113 0.870981 7.15296 0.740233 7.27424 0.640655C7.39552 0.541075 7.54164 0.476431 7.6969 0.453674L7.6924 0.46179Z" fill="white"/>
</svg>
