<svg width="19" height="22" viewBox="0 0 19 22" fill="none" xmlns="http://www.w3.org/2000/svg">
<path d="M0.291009 17.1364C1.55578 18.7404 3.25939 19.9391 5.1921 20.585C7.12481 21.2309 9.20224 21.2957 11.1686 20.7716C13.8416 20.0554 16.1193 18.3019 17.5006 15.8971C18.882 13.4922 19.2539 10.6328 18.5345 7.94801C18.0134 6.01073 16.9496 4.26308 15.4696 2.91263C13.9895 1.56218 12.1554 0.665678 10.185 0.329607C11.0734 1.4489 11.7247 2.73837 12.0987 4.11864C12.8181 6.80345 12.4462 9.6628 11.0648 12.0677C9.68341 14.4726 7.40571 16.226 4.73276 16.9422C3.28397 17.3265 1.76901 17.3927 0.291009 17.1364Z" fill="white"/>
</svg>
