<svg width="21" height="21" viewBox="0 0 21 21" fill="none" xmlns="http://www.w3.org/2000/svg">
<path fill-rule="evenodd" clip-rule="evenodd" d="M0.388828 0.268505C0.54358 0.128453 0.736869 0.0382894 0.943528 0.00975407C1.15019 -0.0187813 1.36064 0.0156339 1.54749 0.108518L20.4057 9.54773C20.5835 9.63199 20.7337 9.76505 20.8389 9.93145C20.9441 10.0978 21 10.2907 21 10.4877C21 10.6846 20.9441 10.8775 20.8389 11.0439C20.7337 11.2102 20.5835 11.3433 20.4057 11.4276L1.54749 20.8668C1.36114 20.9716 1.14705 21.0162 0.934406 20.9947C0.721763 20.9732 0.52092 20.8866 0.359266 20.7466C0.197613 20.6067 0.083017 20.4202 0.0311066 20.2127C-0.0208037 20.0051 -0.00750175 19.7866 0.0691983 19.5869L2.7461 11.5476H8.41953C8.55595 11.5476 8.69103 11.5207 8.81706 11.4684C8.9431 11.4161 9.05761 11.3395 9.15407 11.243C9.25054 11.1464 9.32705 11.0318 9.37926 10.9056C9.43146 10.7794 9.45833 10.6442 9.45833 10.5076C9.45833 10.3711 9.43146 10.2359 9.37926 10.1097C9.32705 9.98352 9.25054 9.86888 9.15407 9.77232C9.05761 9.67575 8.9431 9.59915 8.81706 9.54689C8.69103 9.49463 8.55595 9.46774 8.41953 9.46774H2.7461L0.0691983 1.38841C0.00474256 1.19113 0.00073835 0.979043 0.0577011 0.779459C0.114664 0.579876 0.229987 0.401924 0.388828 0.268505Z" fill="white"/>
</svg>
