<svg width="55" height="70" viewBox="0 0 55 70" fill="none" xmlns="http://www.w3.org/2000/svg">
<path d="M23.5714 50.4083V59.1425H15.7143L27.5 70L39.2857 59.1425H31.4286V50.4083C38.3098 49.4933 44.5594 46.2111 48.9197 41.2223C53.28 36.2335 55.4272 29.9084 54.9293 23.5198C54.4315 17.1313 51.3254 11.1537 46.2362 6.78984C41.147 2.42603 34.4525 0 27.5 0C20.5475 0 13.853 2.42603 8.7638 6.78984C3.67462 11.1537 0.568539 17.1313 0.0706513 23.5198C-0.427237 29.9084 1.72003 36.2335 6.0803 41.2223C10.4406 46.2111 16.6902 49.4933 23.5714 50.4083Z" fill="url(#paint0_linear_39_100)"/>
<path d="M27.5 44.6658C39.0717 44.6658 48.4524 36.024 48.4524 25.3637C48.4524 14.7034 39.0717 6.06152 27.5 6.06152C15.9284 6.06152 6.54767 14.7034 6.54767 25.3637C6.54767 36.024 15.9284 44.6658 27.5 44.6658Z" fill="url(#paint1_linear_39_100)"/>
<path d="M33.2095 24.8208C33.7542 24.1164 34.0472 23.273 34.0476 22.4081V22.2633C34.0506 21.2515 33.6535 20.2734 32.9304 19.5118C32.2074 18.7502 31.208 18.2574 30.1191 18.1254V16.919C30.1191 16.5991 29.9811 16.2922 29.7355 16.066C29.4899 15.8397 29.1568 15.7126 28.8095 15.7126C28.4622 15.7126 28.1291 15.8397 27.8836 16.066C27.638 16.2922 27.5 16.5991 27.5 16.919V18.1254H24.881V16.919C24.881 16.5991 24.743 16.2922 24.4974 16.066C24.2518 15.8397 23.9188 15.7126 23.5714 15.7126C23.2241 15.7126 22.8911 15.8397 22.6455 16.066C22.3999 16.2922 22.2619 16.5991 22.2619 16.919V18.1254H20.9524C20.6051 18.1254 20.272 18.2525 20.0264 18.4788C19.7808 18.705 19.6429 19.0118 19.6429 19.3318C19.6429 19.6518 19.7808 19.9586 20.0264 20.1848C20.272 20.4111 20.6051 20.5382 20.9524 20.5382V30.1893C20.6051 30.1893 20.272 30.3164 20.0264 30.5426C19.7808 30.7688 19.6429 31.0757 19.6429 31.3956C19.6429 31.7156 19.7808 32.0224 20.0264 32.2487C20.272 32.4749 20.6051 32.602 20.9524 32.602H22.2619V33.8084C22.2619 34.1284 22.3999 34.4352 22.6455 34.6615C22.8911 34.8877 23.2241 35.0148 23.5714 35.0148C23.9188 35.0148 24.2518 34.8877 24.4974 34.6615C24.743 34.4352 24.881 34.1284 24.881 33.8084V32.602H27.5V33.8084C27.5 34.1284 27.638 34.4352 27.8836 34.6615C28.1291 34.8877 28.4622 35.0148 28.8095 35.0148C29.1568 35.0148 29.4899 34.8877 29.7355 34.6615C29.9811 34.4352 30.1191 34.1284 30.1191 33.8084V32.602H30.7738C31.7675 32.6049 32.7352 32.3094 33.5302 31.7602C34.3253 31.211 34.9043 30.438 35.1797 29.5584C35.455 28.6787 35.4116 27.7404 35.0561 26.8855C34.7006 26.0307 34.0524 25.3058 33.2095 24.8208ZM28.8095 20.5382H29.5429C30.0419 20.5413 30.5196 20.7254 30.8725 21.0505C31.2254 21.3756 31.4251 21.8156 31.4286 22.2754V22.4201C31.4251 22.8799 31.2254 23.3199 30.8725 23.645C30.5196 23.9701 30.0419 24.1542 29.5429 24.1573H23.5714V20.5382H28.8095ZM30.7738 30.1893H23.5714V26.5701H30.7738C31.2948 26.5701 31.7944 26.7608 32.1628 27.1001C32.5312 27.4395 32.7381 27.8998 32.7381 28.3797C32.7381 28.8596 32.5312 29.3199 32.1628 29.6592C31.7944 29.9986 31.2948 30.1893 30.7738 30.1893Z" fill="url(#paint2_linear_39_100)"/>
<defs>
<linearGradient id="paint0_linear_39_100" x1="27.5" y1="70" x2="27.5" y2="0.029686" gradientUnits="userSpaceOnUse">
<stop stop-color="#000354"/>
<stop offset="1" stop-color="#048AD3"/>
</linearGradient>
<linearGradient id="paint1_linear_39_100" x1="27.5" y1="44.6658" x2="27.5" y2="6.06152" gradientUnits="userSpaceOnUse">
<stop stop-color="#1652F0"/>
<stop offset="1" stop-color="#56B4FC"/>
</linearGradient>
<linearGradient id="paint2_linear_39_100" x1="27.5" y1="35.0148" x2="27.5" y2="15.7126" gradientUnits="userSpaceOnUse">
<stop stop-color="#FF9D32"/>
<stop offset="1" stop-color="#FDF5AD"/>
</linearGradient>
</defs>
</svg>
