<svg width="55" height="52" viewBox="0 0 55 52" fill="none" xmlns="http://www.w3.org/2000/svg">
<path d="M49.5 11V8H27.5C22.7261 7.97083 18.1361 9.83927 14.7399 13.1943C11.3436 16.5493 9.41917 21.1161 9.39 25.89C9.36083 30.6639 11.2293 35.2539 14.5843 38.6501C17.9393 42.0464 22.5061 43.9708 27.28 44H22.72C13.15 44 4.96 36.62 4.5 27.06V25.81C4.61 13.08 15.35 3 28.07 3H49.5V0L55 5.5L49.5 11Z" fill="url(#paint0_linear_39_93)"/>
<path d="M45.5 26.6599C45.5048 26.6897 45.5048 26.7201 45.5 26.7499C45.5149 27.023 45.5149 27.2968 45.5 27.5699C45.5 27.8299 45.5 28.0799 45.41 28.3299C45.32 28.5799 45.36 28.7499 45.32 28.9599C45.28 29.1699 45.26 29.3499 45.22 29.5399C45.18 29.7299 45.11 30.0399 45.05 30.2899C44.99 30.5399 44.92 30.7999 44.84 31.0499C43.6676 34.7935 41.3337 38.0666 38.1766 40.3949C35.0194 42.7233 31.2029 43.9859 27.28 43.9999C24.5847 43.9703 21.9305 43.3357 19.5132 42.1431C17.096 40.9504 14.9775 39.2301 13.314 37.1092C11.6506 34.9882 10.4848 32.5207 9.90256 29.8889C9.32036 27.2571 9.33666 24.5281 9.95026 21.9034C10.5639 19.2787 11.7591 16.8253 13.4477 14.7244C15.1364 12.6234 17.2753 10.9286 19.7066 9.76488C22.1379 8.60118 24.7996 7.99839 27.495 8.00098C30.1905 8.00358 32.8509 8.61151 35.28 9.77989C35.8047 10.0286 36.3154 10.3057 36.81 10.6099C37.7971 11.2102 38.7246 11.9034 39.58 12.6799C39.8 12.8699 40 13.0699 40.21 13.2799C40.9067 13.974 41.5424 14.7267 42.11 15.5299C42.385 15.895 42.6388 16.2756 42.87 16.6699C44.7039 19.6714 45.6182 23.1445 45.5 26.6599Z" fill="url(#paint1_linear_39_93)"/>
<path d="M27.5 39C34.6797 39 40.5 33.1797 40.5 26C40.5 18.8203 34.6797 13 27.5 13C20.3203 13 14.5 18.8203 14.5 26C14.5 33.1797 20.3203 39 27.5 39Z" fill="url(#paint2_linear_39_93)"/>
<path d="M50.5 26.19C50.39 38.92 39.65 49 26.93 49H5.5V52L0 46.5L5.5 41V44H27.28C31.1971 43.9678 35.0026 42.6911 38.1465 40.3543C41.2905 38.0174 43.61 34.7416 44.77 31C44.85 30.75 44.92 30.5 44.98 30.24C45.04 29.98 45.1 29.74 45.15 29.49C45.2 29.24 45.22 29.11 45.25 28.91C45.28 28.71 45.32 28.49 45.34 28.28C45.36 28.07 45.41 27.78 45.43 27.52C45.4449 27.2469 45.4449 26.9731 45.43 26.7C45.4349 26.6702 45.4349 26.6398 45.43 26.61C45.5592 23.0942 44.6553 19.6176 42.83 16.61C42.6 16.22 42.34 15.84 42.07 15.47C41.5024 14.6668 40.8667 13.9141 40.17 13.22C39.97 13.02 39.76 12.81 39.54 12.62C38.6846 11.8434 37.7571 11.1503 36.77 10.55C36.2754 10.2458 35.7647 9.96868 35.24 9.71998C32.8213 8.5743 30.1762 7.9865 27.5 7.99998H32.28C41.85 7.99998 50.04 15.38 50.48 24.94C50.5 25.36 50.5 25.77 50.5 26.19Z" fill="url(#paint3_linear_39_93)"/>
<path d="M31.86 25.55C32.276 24.966 32.4997 24.267 32.5 23.55V23.43C32.5023 22.5913 32.199 21.7805 31.6469 21.1492C31.0947 20.5179 30.3315 20.1094 29.5 20V19C29.5 18.7348 29.3946 18.4804 29.2071 18.2929C29.0196 18.1054 28.7652 18 28.5 18C28.2348 18 27.9804 18.1054 27.7929 18.2929C27.6054 18.4804 27.5 18.7348 27.5 19V20H25.5V19C25.5 18.7348 25.3946 18.4804 25.2071 18.2929C25.0196 18.1054 24.7652 18 24.5 18C24.2348 18 23.9804 18.1054 23.7929 18.2929C23.6054 18.4804 23.5 18.7348 23.5 19V20H22.5C22.2348 20 21.9804 20.1054 21.7929 20.2929C21.6054 20.4804 21.5 20.7348 21.5 21C21.5 21.2652 21.6054 21.5196 21.7929 21.7071C21.9804 21.8946 22.2348 22 22.5 22V30C22.2348 30 21.9804 30.1054 21.7929 30.2929C21.6054 30.4804 21.5 30.7348 21.5 31C21.5 31.2652 21.6054 31.5196 21.7929 31.7071C21.9804 31.8946 22.2348 32 22.5 32H23.5V33C23.5 33.2652 23.6054 33.5196 23.7929 33.7071C23.9804 33.8946 24.2348 34 24.5 34C24.7652 34 25.0196 33.8946 25.2071 33.7071C25.3946 33.5196 25.5 33.2652 25.5 33V32H27.5V33C27.5 33.2652 27.6054 33.5196 27.7929 33.7071C27.9804 33.8946 28.2348 34 28.5 34C28.7652 34 29.0196 33.8946 29.2071 33.7071C29.3946 33.5196 29.5 33.2652 29.5 33V32H30C30.7588 32.0024 31.4978 31.7574 32.1049 31.3022C32.712 30.8469 33.1542 30.2062 33.3645 29.477C33.5747 28.7479 33.5416 27.9701 33.2701 27.2615C32.9987 26.5528 32.5036 25.952 31.86 25.55ZM28.5 22H29.06C29.4411 22.0026 29.8059 22.1552 30.0753 22.4247C30.3448 22.6941 30.4974 23.0589 30.5 23.44V23.56C30.4974 23.9411 30.3448 24.3059 30.0753 24.5753C29.8059 24.8448 29.4411 24.9974 29.06 25H24.5V22H28.5ZM30 30H24.5V27H30C30.3978 27 30.7794 27.158 31.0607 27.4393C31.342 27.7206 31.5 28.1022 31.5 28.5C31.5 28.8978 31.342 29.2794 31.0607 29.5607C30.7794 29.842 30.3978 30 30 30Z" fill="url(#paint4_linear_39_93)"/>
<defs>
<linearGradient id="paint0_linear_39_93" x1="4.5" y1="22" x2="55" y2="22" gradientUnits="userSpaceOnUse">
<stop stop-color="#39A9FD"/>
<stop offset="1" stop-color="#ADF2F2"/>
</linearGradient>
<linearGradient id="paint1_linear_39_93" x1="27.5" y1="43.9999" x2="27.5" y2="7.99989" gradientUnits="userSpaceOnUse">
<stop stop-color="#000354"/>
<stop offset="0.0001" stop-color="#000354"/>
<stop offset="1" stop-color="#048AD3"/>
</linearGradient>
<linearGradient id="paint2_linear_39_93" x1="27.5" y1="39" x2="27.5" y2="13" gradientUnits="userSpaceOnUse">
<stop stop-color="#1652F0"/>
<stop offset="1" stop-color="#56B4FC"/>
</linearGradient>
<linearGradient id="paint3_linear_39_93" x1="0" y1="30" x2="50.5" y2="30" gradientUnits="userSpaceOnUse">
<stop stop-color="#1384C3"/>
<stop offset="1" stop-color="#ADF2F2"/>
</linearGradient>
<linearGradient id="paint4_linear_39_93" x1="27.5" y1="34" x2="27.5" y2="18" gradientUnits="userSpaceOnUse">
<stop stop-color="#FF9D32"/>
<stop offset="1" stop-color="#FDF5AD"/>
<stop offset="1" stop-color="#FDF5AD"/>
</linearGradient>
</defs>
</svg>
