<svg width="25" height="25" viewBox="0 0 25 25" fill="none" xmlns="http://www.w3.org/2000/svg">
<g clip-path="url(#clip0_133_15)">
<path d="M12.5001 19.8C12.7741 19.8 13.037 19.9089 13.2307 20.1027C13.4245 20.2964 13.5334 20.5593 13.5334 20.8333V21.8667C13.5334 22.1451 13.4228 22.4122 13.2259 22.6091C13.0289 22.806 12.7619 22.9167 12.4834 22.9167C12.2049 22.9167 11.9379 22.806 11.7409 22.6091C11.544 22.4122 11.4334 22.1451 11.4334 21.8667V20.8333C11.4334 20.5593 11.5423 20.2964 11.7361 20.1027C11.9298 19.9089 12.226 19.8 12.5001 19.8ZM19.1334 17.6667L19.8667 18.4C20.0612 18.5945 20.1705 18.8583 20.1705 19.1333C20.1705 19.4084 20.0612 19.6722 19.8667 19.8667C19.6722 20.0612 19.4085 20.1704 19.1334 20.1704C18.8583 20.1704 18.5946 20.0612 18.4001 19.8667L17.6667 19.1333C17.4722 18.9388 17.363 18.6751 17.363 18.4C17.363 18.1249 17.4722 17.8612 17.6667 17.6667C17.8612 17.4722 18.125 17.3629 18.4001 17.3629C18.6751 17.3629 18.9389 17.4722 19.1334 17.6667ZM5.86673 17.6667C5.95647 17.5638 6.06559 17.4796 6.18786 17.4189C6.31013 17.3582 6.44316 17.3222 6.57936 17.3129C6.71555 17.3036 6.85224 17.3213 6.98162 17.3648C7.11099 17.4083 7.23053 17.4769 7.3334 17.5667C7.43627 17.6564 7.52046 17.7655 7.58115 17.8878C7.64185 18.0101 7.67787 18.1431 7.68716 18.2793C7.69644 18.4155 7.67881 18.5522 7.63527 18.6815C7.59173 18.8109 7.52314 18.9305 7.4334 19.0333L7.3334 19.1333L6.60007 19.8667C6.51033 19.9695 6.40121 20.0537 6.27894 20.1144C6.15667 20.1751 6.02364 20.2111 5.88744 20.2204C5.75125 20.2297 5.61456 20.2121 5.48518 20.1685C5.3558 20.125 5.23627 20.0564 5.1334 19.9667C5.03053 19.8769 4.94634 19.7678 4.88565 19.6455C4.82495 19.5233 4.78893 19.3902 4.77964 19.254C4.77036 19.1178 4.78799 18.9812 4.83153 18.8518C4.87507 18.7224 4.94366 18.6029 5.0334 18.5L5.1334 18.4L5.86673 17.6667ZM12.5001 6.26666C13.3592 6.20388 14.2221 6.3189 15.0348 6.60454C15.8475 6.89018 16.5925 7.34031 17.2235 7.92682C17.8544 8.51333 18.3576 9.22362 18.7018 10.0133C19.0459 10.803 19.2235 11.6552 19.2235 12.5167C19.2235 13.3781 19.0459 14.2303 18.7018 15.02C18.3576 15.8097 17.8544 16.52 17.2235 17.1065C16.5925 17.693 15.8475 18.1431 15.0348 18.4288C14.2221 18.7144 13.3592 18.8294 12.5001 18.7667C10.9213 18.6513 9.44472 17.9427 8.36696 16.7833C7.2892 15.6239 6.69014 14.0996 6.69014 12.5167C6.69014 10.9337 7.2892 9.40939 8.36696 8.25C9.44472 7.0906 10.9213 6.38204 12.5001 6.26666ZM4.16673 11.4667C4.44079 11.449 4.71065 11.5409 4.91694 11.7222C5.12323 11.9035 5.24905 12.1593 5.26673 12.4333C5.28441 12.7074 5.1925 12.9772 5.01122 13.1835C4.82993 13.3898 4.57412 13.5156 4.30007 13.5333H4.16673H3.1334C2.85934 13.551 2.58949 13.4591 2.3832 13.2778C2.17691 13.0965 2.05108 12.8407 2.0334 12.5667C2.01572 12.2926 2.10763 12.0228 2.28892 11.8165C2.4702 11.6102 2.72601 11.4843 3.00007 11.4667H3.1334H4.16673ZM21.8667 11.4667C22.1452 11.4667 22.4123 11.5773 22.6092 11.7742C22.8061 11.9711 22.9167 12.2382 22.9167 12.5167C22.9167 12.7951 22.8061 13.0622 22.6092 13.2591C22.4123 13.456 22.1452 13.5667 21.8667 13.5667H20.8334C20.5549 13.5667 20.2879 13.456 20.0909 13.2591C19.894 13.0622 19.7834 12.7951 19.7834 12.5167C19.7834 12.2382 19.894 11.9711 20.0909 11.7742C20.2879 11.5773 20.5549 11.4667 20.8334 11.4667H21.8667ZM5.1334 5.13333C5.30966 4.95259 5.54599 4.84263 5.79777 4.82421C6.04956 4.80579 6.29937 4.88018 6.50007 5.03333L6.60007 5.13333L7.3334 5.86666C7.54115 6.0479 7.6684 6.30423 7.68716 6.57929C7.70591 6.85434 7.61463 7.12558 7.4334 7.33333C7.25217 7.54108 6.99583 7.66833 6.72078 7.68709C6.44572 7.70584 6.17449 7.61456 5.96673 7.43333L5.86673 7.33333L5.1334 6.6C5.03665 6.50395 4.95986 6.3897 4.90746 6.26384C4.85506 6.13798 4.82808 6.003 4.82808 5.86666C4.82808 5.73033 4.85506 5.59535 4.90746 5.46949C4.95986 5.34363 5.03665 5.22938 5.1334 5.13333ZM19.8667 5.13333C19.9635 5.22938 20.0403 5.34363 20.0927 5.46949C20.1451 5.59535 20.1721 5.73033 20.1721 5.86666C20.1721 6.003 20.1451 6.13798 20.0927 6.26384C20.0403 6.3897 19.9635 6.50395 19.8667 6.6L19.1334 7.33333C19.0371 7.42963 18.9228 7.50603 18.7969 7.55814C18.6711 7.61026 18.5363 7.63709 18.4001 7.63709C18.2639 7.63709 18.129 7.61026 18.0032 7.55814C17.8774 7.50603 17.763 7.42963 17.6667 7.33333C17.5704 7.23703 17.494 7.1227 17.4419 6.99688C17.3898 6.87105 17.363 6.73619 17.363 6.6C17.363 6.46381 17.3898 6.32895 17.4419 6.20312C17.494 6.0773 17.5704 5.96297 17.6667 5.86666L18.4001 5.13333C18.4961 5.03658 18.6104 4.95979 18.7362 4.90739C18.8621 4.85499 18.9971 4.82801 19.1334 4.82801C19.2697 4.82801 19.4047 4.85499 19.5306 4.90739C19.6564 4.95979 19.7707 5.03658 19.8667 5.13333ZM12.5001 2.1C12.7741 2.1 13.037 2.20887 13.2307 2.40265C13.4245 2.59644 13.5334 2.85927 13.5334 3.13333V4.16667C13.5334 4.44514 13.4228 4.71221 13.2259 4.90913C13.0289 5.10604 12.7619 5.21666 12.4834 5.21666C12.2049 5.21666 11.9379 5.10604 11.7409 4.90913C11.544 4.71221 11.4334 4.44514 11.4334 4.16667V3.13333C11.4334 2.85927 11.5423 2.59644 11.7361 2.40265C11.9298 2.20887 12.226 2.1 12.5001 2.1Z" fill="white"/>
</g>
<defs>
<clipPath id="clip0_133_15">
<rect width="25" height="25" fill="white"/>
</clipPath>
</defs>
</svg>
