<svg width="25" height="25" viewBox="0 0 25 25" fill="none" xmlns="http://www.w3.org/2000/svg">
<path fill-rule="evenodd" clip-rule="evenodd" d="M10.4334 0.533325C7.8078 0.533325 5.2897 1.57636 3.43309 3.43297C1.57648 5.28958 0.533447 7.80768 0.533447 10.4333C0.533447 13.059 1.57648 15.5771 3.43309 17.4337C5.2897 19.2903 7.8078 20.3333 10.4334 20.3333C12.6001 20.3333 14.6001 19.6333 16.2334 18.4667L21.1334 23.3667C21.2295 23.4634 21.3437 23.5402 21.4696 23.5926C21.5955 23.645 21.7304 23.672 21.8668 23.672C22.0031 23.672 22.1381 23.645 22.264 23.5926C22.3898 23.5402 22.5041 23.4634 22.6001 23.3667L23.3334 22.6333C23.4302 22.5373 23.507 22.423 23.5594 22.2972C23.6118 22.1713 23.6388 22.0363 23.6388 21.9C23.6388 21.7637 23.6118 21.6287 23.5594 21.5028C23.507 21.377 23.4302 21.2627 23.3334 21.1667L18.4334 16.2667C19.6587 14.5695 20.3124 12.5266 20.3001 10.4333C20.3001 7.81345 19.2617 5.30038 17.4123 3.44473C15.5629 1.58907 13.0533 0.542146 10.4334 0.533325ZM3.63345 10.4333C3.63345 8.63869 4.34636 6.91756 5.61536 5.64857C6.88435 4.37957 8.60548 3.66666 10.4001 3.66666C12.1947 3.66666 13.9159 4.37957 15.1849 5.64857C16.4539 6.91756 17.1668 8.63869 17.1668 10.4333C17.1668 12.228 16.4539 13.9491 15.1849 15.2181C13.9159 16.4871 12.1947 17.2 10.4001 17.2C8.60548 17.2 6.88435 16.4871 5.61536 15.2181C4.34636 13.9491 3.63345 12.228 3.63345 10.4333Z" fill="#5E6673"/>
</svg>
