<svg width="21" height="17" viewBox="0 0 21 17" fill="none" xmlns="http://www.w3.org/2000/svg">
<path d="M20.8333 2.06695C20.0478 2.40755 19.2169 2.63212 18.3667 2.73362C19.2666 2.20189 19.942 1.36056 20.2667 0.366955C19.4215 0.865397 18.4969 1.21493 17.5333 1.40029C16.8946 0.696008 16.0389 0.225262 15.1021 0.0627735C14.1653 -0.0997153 13.201 0.0553638 12.3624 0.503395C11.5238 0.951426 10.8588 1.66674 10.4731 2.53578C10.0874 3.40483 10.003 4.37781 10.2333 5.30029C8.53545 5.21383 6.87468 4.77153 5.3587 4.00205C3.84272 3.23258 2.50536 2.15311 1.43333 0.833621C1.05785 1.49371 0.86244 2.24089 0.866667 3.00029C0.863935 3.70551 1.03605 4.40041 1.36762 5.02283C1.69919 5.64525 2.17987 6.17578 2.76667 6.56696C2.08881 6.5466 1.42576 6.36369 0.833333 6.03362V6.10029C0.837446 7.08417 1.18147 8.0364 1.80715 8.79573C2.43284 9.55505 3.30172 10.0748 4.26667 10.267C3.89855 10.3753 3.51705 10.4314 3.13333 10.4336C2.86533 10.4325 2.59783 10.4102 2.33333 10.367C2.60547 11.218 3.13793 11.9622 3.8556 12.4944C4.57326 13.0267 5.43992 13.3202 6.33333 13.3336C4.81805 14.5101 2.95171 15.144 1.03333 15.1336C0.687834 15.133 0.342713 15.1107 0 15.067C1.95637 16.3318 4.23704 17.0032 6.56667 17.0003C8.16813 17.0136 9.75622 16.708 11.2384 16.1013C12.7205 15.4946 14.0671 14.5989 15.1995 13.4665C16.332 12.334 17.2276 10.9875 17.8343 9.50533C18.4411 8.02318 18.7467 6.43508 18.7333 4.83362V4.26695C19.5562 3.66157 20.2669 2.91704 20.8333 2.06695Z" fill="white"/>
</svg>
